PathFileType	4	(X/Y/Z)	C:/Users/opensim2020/Desktop/walking_exp_matlab/subject02_walking15_straight_01.trc	
DataRate	CameraRate	NumFrames	NumMarkers	Units	OrigDataRate	OrigDataStartFrame	OrigNumFrames	
100.00	100.00	9	42	mm	100.00	532	165	
Frame#	Time	LFHD			RFHD			LBHD			RBHD			C7			T10			CLAV			STRN			RBAK			LSHO			LUPA			LELB			LFRM			LWRA			LWRB			LFIN			RSHO			RUPA			RELB			RFRM			RWRA			RWRB			RFIN			LASI			RASI			LPSI			RPSI			LTHI			LKNE			LTIB			LANK			LHEE			LTOE			RTHI			RKNE			RTIB			RANK			RHEE			RTOE			*39			*40			*41			
		X1	Y1	Z1	X2	Y2	Z2	X3	Y3	Z3	X4	Y4	Z4	X5	Y5	Z5	X6	Y6	Z6	X7	Y7	Z7	X8	Y8	Z8	X9	Y9	Z9	X10	Y10	Z10	X11	Y11	Z11	X12	Y12	Z12	X13	Y13	Z13	X14	Y14	Z14	X15	Y15	Z15	X16	Y16	Z16	X17	Y17	Z17	X18	Y18	Z18	X19	Y19	Z19	X20	Y20	Z20	X21	Y21	Z21	X22	Y22	Z22	X23	Y23	Z23	X24	Y24	Z24	X25	Y25	Z25	X26	Y26	Z26	X27	Y27	Z27	X28	Y28	Z28	X29	Y29	Z29	X30	Y30	Z30	X31	Y31	Z31	X32	Y32	Z32	X33	Y33	Z33	X34	Y34	Z34	X35	Y35	Z35	X36	Y36	Z36	X37	Y37	Z37	X38	Y38	Z38	X39	Y39	Z39	X40	Y40	Z40	X41	Y41	Z41	X42	Y42	Z42	

145	1.440	1426.77551	482.66147	1712.51575	1569.48755	496.93375	1698.98108	1434.44702	350.62610	1640.01160	1577.00085	351.90216	1625.65698	1511.49744	304.53583	1494.40881	1534.17822	270.18417	1217.16138	1490.49292	449.28558	1434.15808	1509.34558	513.23358	1268.29077	1589.01270	261.79947	1320.49158	1328.86951	359.92972	1460.44275	1269.99194	275.53210	1274.16455	1277.09558	220.79863	1148.62793	1265.85681	158.42578	1036.49780	1284.14331	141.27298	894.33771	1263.50525	99.89584	927.16254	1267.69702	70.65316	865.39191	1689.29797	390.94162	1481.03760	1795.19031	394.93890	1300.66931	1835.07568	447.65973	1165.73669	1839.35950	542.82733	1087.37427	1804.49402	655.06360	1023.18390	1838.84253	626.30927	987.95026	1838.39355	695.62091	973.16632	1403.44556	508.02448	972.48773	1658.45398	508.52118	948.93689	1480.60608	296.71323	1004.23486	1593.44861	292.50482	1003.23273	1332.34705	523.73334	672.88251	1371.31445	563.15125	476.76151	1374.91357	555.91125	282.61716	1409.11389	607.70190	69.34743	1467.38379	583.07867	42.84352	1375.06897	759.58923	46.55523	1737.76733	351.77136	663.87012	1723.43274	290.84442	463.59036	1733.65369	153.00119	333.02509	1711.76892	33.01564	178.61884	1655.12683	-19.10769	154.08606	1715.56506	119.50001	35.59051	1523.65466	391.64804	1782.85754	-3356.99658	2846.12573	1034.27124			 
146	1.450	1422.46130	495.78558	1713.41602	1565.16357	510.15552	1700.16455	1430.53552	363.63034	1641.67883	1572.94214	364.85934	1627.41089	1507.32800	317.47189	1495.62195	1530.58630	284.37164	1217.92529	1486.49377	462.07452	1435.85645	1504.93640	526.96375	1270.37341	1585.47156	275.34592	1321.14709	1324.79993	372.82822	1461.32666	1265.73596	290.87894	1273.71521	1273.00842	236.36099	1147.88647	1261.69543	175.41286	1034.79248	1282.32019	159.00977	892.92926	1259.80627	117.87885	924.87567	1265.33899	89.35948	862.61523	1685.79041	403.55084	1481.89148	1790.95837	406.54874	1300.88708	1830.82800	458.42929	1165.71460	1835.11682	553.71875	1087.52551	1800.33496	666.15021	1023.78583	1834.58472	637.50165	988.44946	1834.01123	706.62146	973.71851	1398.28247	522.51990	973.06677	1652.12646	524.32568	949.42792	1476.37891	311.80548	1006.52008	1590.76794	308.27219	1004.59662	1329.93298	532.46869	672.22363	1369.39355	576.82654	478.56616	1370.14514	566.45343	285.04742	1409.64258	608.94617	70.70216	1467.50244	584.08698	43.59535	1375.21204	760.94928	44.29770	1735.01111	370.32632	663.62720	1722.97192	313.31335	462.88785	1733.46289	171.94774	336.67279	1711.03210	47.94112	186.40216	1653.23059	-3.47762	165.48225	1714.50366	121.40607	35.76469	1519.33154	405.21027	1784.43701	-3357.23682	2846.20117	1034.27307			 
147	1.460	1418.13330	508.73709	1714.52563	1560.84155	523.29272	1701.51819	1426.55627	376.27426	1643.37170	1569.29785	377.89331	1629.47791	1503.73816	330.30957	1497.21436	1526.94739	298.17221	1218.65308	1482.72119	474.84515	1437.74744	1500.54761	540.60211	1272.55444	1581.72791	288.82291	1321.58569	1320.84546	385.22415	1462.46350	1261.55884	306.37543	1273.32581	1268.85815	252.49785	1147.19226	1257.75220	192.81245	1033.45288	1279.52942	178.17169	891.20636	1255.73352	137.08475	922.29053	1262.71716	109.41091	859.74115	1682.57703	416.49176	1483.07092	1786.54663	417.94366	1301.34485	1826.44299	469.06448	1165.94153	1830.77905	564.23169	1087.57495	1796.10449	676.61407	1023.84900	1829.83728	647.72565	988.19507	1829.69543	717.01111	973.66113	1393.15198	536.52979	973.86328	1645.72144	539.49225	950.25177	1472.20398	326.26941	1009.04547	1588.14624	324.00244	1006.20459	1328.09851	542.17139	671.69165	1367.43970	588.54803	479.50183	1368.61548	574.31116	286.45059	1409.66418	610.96204	71.17716	1467.50439	584.77631	43.78962	1376.11145	762.63068	42.79903	1731.87085	389.48663	662.81024	1722.00000	336.70520	461.81769	1732.68213	192.68935	339.88339	1710.31079	65.14885	193.46446	1651.81433	13.86362	176.71040	1712.98718	124.40945	36.11936	1514.99438	418.70627	1786.11084	-3357.22510	2846.10181	1034.36060			 
148	1.470	1413.61328	521.48468	1715.71216	1556.48792	536.39038	1702.94543	1422.59070	388.78857	1644.80334	1565.22302	390.55173	1631.38208	1500.48840	343.43802	1498.47180	1523.93530	311.91992	1219.93628	1478.98291	487.63354	1439.62512	1496.24426	554.17651	1274.69495	1578.57385	302.33893	1322.58508	1317.02588	397.22147	1463.85083	1257.48889	321.78381	1273.22717	1264.58203	269.25287	1146.40735	1253.46423	211.50537	1031.74280	1277.44739	198.31514	889.57727	1251.31531	157.71194	919.50183	1259.40369	130.91473	856.21832	1679.61401	429.82971	1484.61719	1782.33252	429.46252	1302.23071	1821.86829	479.68549	1166.35681	1826.38281	574.43579	1087.51526	1791.92407	686.66809	1023.46643	1825.15845	657.28107	987.47803	1825.38379	726.72455	972.98608	1387.92212	550.32422	975.08490	1639.40186	554.13062	951.37012	1468.29895	340.20139	1011.68219	1585.37036	339.25858	1007.89258	1326.04797	552.75226	671.63263	1365.24670	598.62408	479.51944	1368.62842	579.53699	287.09525	1409.86462	612.05566	71.20019	1467.59924	585.26404	43.98374	1376.08765	763.39630	42.02940	1729.04224	409.54105	661.94269	1721.25171	360.86307	460.65762	1731.43591	214.72586	342.69217	1709.54395	83.71761	200.41489	1650.23975	31.73646	187.52505	1710.31555	131.59016	39.46331	1510.78284	432.15067	1787.88538	-3357.15894	2846.11743	1034.48169			 
149	1.480	1409.42773	534.13098	1716.78845	1552.12292	549.49518	1704.54443	1419.14063	401.35086	1646.50842	1561.61829	403.53928	1633.39795	1497.84790	355.86237	1500.10730	1520.66980	325.18863	1221.14844	1475.38831	500.44611	1441.47144	1492.19385	567.45764	1276.72046	1575.80237	315.62579	1324.22449	1313.84180	409.37888	1465.58435	1253.14722	337.10947	1273.57446	1260.32874	286.44833	1145.72375	1248.92249	230.80247	1029.86108	1274.49548	219.87993	887.70117	1246.65503	179.56711	916.46838	1255.37036	153.44357	852.72388	1676.03687	442.93301	1485.97571	1778.51331	441.15622	1303.59778	1817.45508	490.17706	1167.01477	1822.18298	584.53772	1087.51233	1787.67517	696.18134	1022.55151	1820.78821	666.58154	986.74908	1821.05713	735.81000	971.63837	1382.85986	563.69727	976.63324	1633.30103	568.25214	952.63293	1464.68481	354.02667	1013.93848	1582.47266	353.81436	1009.64917	1323.76184	564.75067	672.36841	1363.14075	607.45654	479.40005	1369.04431	583.31628	287.53705	1410.07751	612.51617	71.44057	1467.40198	585.02393	44.17467	1375.75073	763.85083	41.39894	1725.93799	429.95126	660.42822	1720.06519	385.84744	459.19305	1730.22217	237.90176	344.99713	1707.33386	102.37488	207.56261	1648.05579	50.09306	198.29047	1707.95422	142.39682	45.15021	1506.39648	445.25040	1789.57410	-3357.04443	2846.07080	1034.45422			 
150	1.490	1405.19885	546.76715	1718.28210	1547.79272	562.60968	1706.42737	1415.47595	413.65921	1648.03052	1558.21985	416.54889	1635.53467	1495.05908	368.58917	1501.40942	1517.72119	338.36340	1223.05164	1472.01660	513.23541	1443.41418	1488.41724	580.45245	1278.65906	1572.60498	328.73291	1325.66650	1310.73096	421.23901	1467.44641	1249.51624	351.60074	1273.81506	1256.06555	304.05637	1145.11951	1244.68262	251.35341	1027.97729	1272.07190	242.19328	885.85809	1241.85352	202.49734	913.42297	1251.15161	177.72499	848.90698	1672.91736	456.39383	1487.81738	1774.31665	452.67896	1304.95044	1812.94348	500.73544	1167.83215	1817.85754	594.34076	1087.29065	1783.43506	705.25043	1021.12549	1816.32971	675.26282	985.58636	1816.72839	744.27057	969.65619	1377.93823	576.64246	978.55896	1627.58240	582.03101	954.02740	1461.31628	367.34003	1015.97675	1579.34485	367.73337	1011.32104	1321.23621	577.57990	673.88934	1361.26160	615.23175	479.49356	1369.76978	586.16083	287.85522	1410.22131	613.04254	71.45615	1467.61279	585.22064	44.41423	1376.09363	764.31537	41.08538	1722.65833	450.73495	658.57269	1718.62402	411.29114	457.93668	1728.87317	261.75497	347.20605	1704.20972	121.96801	215.04144	1644.16492	70.18964	207.95511	1708.44836	156.43538	51.93148	1502.06116	458.24234	1791.46301	-3357.00146	2845.99438	1034.41663			 
151	1.500	1400.92065	559.05725	1719.74609	1543.46814	575.69739	1708.57776	1412.22900	425.95447	1649.79395	1554.96057	429.65402	1637.78711	1492.30115	380.46045	1503.16553	1514.82898	351.22168	1225.04773	1468.69580	525.87531	1445.45166	1484.86487	593.17188	1280.63635	1570.15369	341.80774	1327.91052	1307.61023	432.91602	1469.36841	1245.73376	367.47861	1274.64453	1251.69861	321.96652	1144.60193	1239.96167	272.60068	1026.09521	1268.10193	266.99005	884.08569	1236.97974	226.53456	910.31934	1245.83521	202.53992	845.25171	1669.71887	469.58514	1489.69116	1770.71594	464.65909	1306.68164	1808.26245	511.14951	1168.56726	1813.44922	603.81940	1086.88110	1779.12964	713.80383	1019.13995	1811.93689	683.37994	983.98938	1812.42712	752.15704	967.10779	1373.16309	589.22552	980.69019	1622.31885	595.45520	955.51666	1458.14929	380.18762	1017.76453	1576.11694	381.04053	1012.91266	1318.67896	590.61700	675.72296	1359.36304	621.40143	479.46420	1370.37207	588.50372	288.03964	1410.43298	613.31696	71.52560	1467.71448	585.38385	44.14774	1376.55603	764.76599	41.07408	1719.66626	472.43805	657.64386	1716.89441	437.17694	457.22598	1726.48328	286.04636	349.69650	1699.70142	142.99487	222.02724	1638.38354	92.17077	215.18198	1709.87451	174.32028	58.84185	1498.13025	471.24045	1793.54187	-3357.17212	2846.17407	1034.31970			 
152	1.510	1396.58411	571.24493	1721.59277	1539.23425	588.80164	1710.87805	1409.08899	438.34933	1651.61487	1552.12671	443.02264	1640.21436	1489.69885	393.18823	1505.24744	1511.97961	363.94366	1227.14172	1465.59912	538.32587	1447.64954	1481.52136	605.73651	1282.68835	1567.47266	354.45203	1330.02698	1304.78271	444.67435	1471.53857	1242.31287	383.11221	1275.46289	1247.27795	340.17770	1144.16309	1235.79602	295.04916	1024.49963	1264.47961	291.81195	882.35010	1232.04980	251.51472	907.31134	1240.68530	229.05243	841.67596	1666.45544	482.58694	1491.66431	1767.29004	476.71152	1308.53455	1803.86609	521.84338	1169.63293	1809.13306	613.14825	1086.39038	1774.97131	722.09326	1016.81354	1807.63635	690.86145	981.99298	1808.10632	759.40192	963.91418	1368.69763	601.26031	982.82764	1617.70776	608.60413	957.24866	1455.01550	392.34299	1019.26971	1572.75098	393.55322	1014.58911	1316.16736	603.27173	677.29828	1358.29761	627.18866	479.61429	1370.13013	590.57306	288.25305	1410.60327	613.48499	71.63795	1467.62744	585.01550	44.21982	1376.76563	764.83258	40.86258	1716.48267	493.66266	657.58698	1714.62109	463.19437	457.40161	1722.89160	310.81729	352.79114	1693.94482	165.08969	228.36990	1631.24500	115.03470	219.91145	1710.94849	194.99902	66.00765	1494.02771	483.90305	1795.59351	-3356.85669	2846.03638	1034.19800			 
153	1.520	1392.54822	583.40894	1723.50427	1535.19263	601.91602	1713.31299	1406.08496	450.63721	1653.54419	1548.84009	456.02505	1642.50415	1487.01196	405.77625	1507.68079	1509.21753	376.46805	1229.42786	1462.59729	550.64063	1449.93250	1478.34912	618.18036	1284.85950	1565.34717	367.16837	1332.68994	1302.19714	456.54007	1473.90479	1238.15332	397.57501	1276.24243	1242.76563	358.76019	1143.84558	1230.57739	316.23666	1022.44781	1260.66199	317.55020	880.76392	1227.15198	277.30978	904.59564	1235.11829	257.04565	838.25330	1663.86438	495.74350	1494.01196	1763.91125	488.96445	1310.48279	1799.46313	532.59656	1170.85950	1804.99231	622.32074	1085.85925	1770.77087	730.01587	1014.02985	1803.51453	697.97998	979.87970	1803.54041	766.00372	960.14044	1364.70007	613.00427	984.94714	1613.77075	621.40442	959.32471	1452.23328	405.04846	1020.89374	1569.34045	405.66125	1016.32977	1313.71533	615.13226	678.50049	1356.83142	632.17596	479.55588	1368.96765	592.92523	288.61188	1410.60828	613.64459	71.69042	1467.82507	585.21777	44.22235	1376.99841	764.95441	40.77710	1713.66223	514.68671	659.04480	1711.91016	489.24365	458.55951	1718.68604	336.02271	356.10229	1687.98120	188.61594	233.73343	1624.66821	139.09236	223.25084	1711.87048	218.75336	72.61527	1490.26489	496.67917	1797.84937	-3356.65405	2846.15820	1034.19507			 
